<?xml version="1.0" encoding="UTF-8"?>
<svg width="24px" height="26px" viewBox="0 0 24 26" version="1.1" xmlns="http://www.w3.org/2000/svg" xmlns:xlink="http://www.w3.org/1999/xlink">
    <title>9B316850-E936-411B-9A61-16BAC04C2F9A</title>
    <g id="Page-1" stroke="none" stroke-width="1" fill="none" fill-rule="evenodd">
        <g id="create-LP-update" transform="translate(-1086.000000, -535.000000)">
            <g id="Group-8-Copy" transform="translate(1046.000000, 187.000000)">
                <g id="Group-13" transform="translate(24.000000, 337.000000)">
                    <g id="file-xls-icon" transform="translate(16.000000, 12.000000)">
                        <polyline id="Path" stroke="#DEDEDE" stroke-linecap="round" stroke-linejoin="round" points="14.6666667 0.266666667 14.6666667 6.66666667 21.0666667 6.66666667"></polyline>
                        <polyline id="Path" stroke="#DEDEDE" stroke-linecap="round" stroke-linejoin="round" points="21.0666667 11.4666667 21.0666667 6.66666667 14.6666667 0.266666667 2.93333333 0.266666667 2.93333333 11.4666667"></polyline>
                        <polyline id="Path" stroke="#DEDEDE" stroke-linecap="round" stroke-linejoin="round" points="2.93333333 21.0666667 2.93333333 23.7333333 21.0666667 23.7333333 21.0666667 21.0666667"></polyline>
                        <rect id="Rectangle" fill="#0091FF" x="0" y="11" width="24" height="10"></rect>
                        <path d="M7.70214844,19 C8.07519531,18.9980469 8.41015625,18.9121094 8.70703125,18.7421875 C9.00390625,18.5722656 9.23388672,18.3330078 9.39697266,18.0244141 C9.56005859,17.7158203 9.64160156,17.3632812 9.64160156,16.9667969 L9.64160156,16.9667969 L9.64160156,16.7705078 C9.64160156,16.3740234 9.55859375,16.0200195 9.39257812,15.7084961 C9.2265625,15.3969727 8.99560547,15.1567383 8.69970703,14.987793 C8.40380859,14.8188477 8.06835938,14.734375 7.69335938,14.734375 L7.69335938,14.734375 L6.38085938,14.734375 L6.38085938,19 L7.70214844,19 Z M7.68457031,18.2939453 L7.25976562,18.2939453 L7.25976562,15.4462891 L7.69335938,15.4462891 C8.0390625,15.4462891 8.30175781,15.5581055 8.48144531,15.7817383 C8.66113281,16.0053711 8.75097656,16.3339844 8.75097656,16.7675781 L8.75097656,16.7675781 L8.75097656,16.9931641 C8.74707031,17.4111328 8.65429688,17.7324219 8.47265625,17.9570312 C8.29101562,18.1816406 8.02832031,18.2939453 7.68457031,18.2939453 L7.68457031,18.2939453 Z M11.9736328,19.0585938 C12.3310547,19.0585938 12.6479492,18.9726562 12.9243164,18.8007812 C13.2006836,18.6289062 13.4130859,18.3847656 13.5615234,18.0683594 C13.7099609,17.7519531 13.7841797,17.3837891 13.7841797,16.9638672 L13.7841797,16.9638672 L13.7841797,16.7734375 C13.7841797,16.3554688 13.7084961,15.9868164 13.5571289,15.6674805 C13.4057617,15.3481445 13.1918945,15.1030273 12.9155273,14.9321289 C12.6391602,14.7612305 12.3232422,14.6757812 11.9677734,14.6757812 C11.6123047,14.6757812 11.2963867,14.7612305 11.0200195,14.9321289 C10.7436523,15.1030273 10.5297852,15.3481445 10.378418,15.6674805 C10.2270508,15.9868164 10.1513672,16.3564453 10.1513672,16.7763672 L10.1513672,16.7763672 L10.1513672,16.9873047 C10.1533203,17.3974609 10.2304688,17.7602539 10.3828125,18.0756836 C10.5351562,18.3911133 10.75,18.6337891 11.0273438,18.8037109 C11.3046875,18.9736328 11.6201172,19.0585938 11.9736328,19.0585938 Z M11.9736328,18.3378906 C11.6728516,18.3378906 11.4423828,18.2177734 11.2822266,17.9775391 C11.1220703,17.7373047 11.0419922,17.3994141 11.0419922,16.9638672 L11.0419922,16.9638672 L11.0419922,16.7558594 C11.0439453,16.3125 11.125,15.9760742 11.2851562,15.746582 C11.4453125,15.5170898 11.6728516,15.4023438 11.9677734,15.4023438 C12.2646484,15.4023438 12.4931641,15.5185547 12.6533203,15.7509766 C12.8134766,15.9833984 12.8935547,16.3232422 12.8935547,16.7705078 L12.8935547,16.7705078 L12.8935547,16.9785156 C12.8916016,17.421875 12.8115234,17.7592773 12.6533203,17.9907227 C12.4951172,18.222168 12.2685547,18.3378906 11.9736328,18.3378906 Z M16.0546875,19.0585938 C16.5546875,19.0585938 16.9575195,18.9267578 17.2631836,18.6630859 C17.5688477,18.3994141 17.7382812,18.0380859 17.7714844,17.5791016 L17.7714844,17.5791016 L16.8925781,17.5791016 C16.8730469,17.8388672 16.7963867,18.0307617 16.6625977,18.1547852 C16.5288086,18.2788086 16.3261719,18.3408203 16.0546875,18.3408203 C15.7539062,18.3408203 15.5336914,18.234375 15.394043,18.0214844 C15.2543945,17.8085938 15.1845703,17.4716797 15.1845703,17.0107422 L15.1845703,17.0107422 L15.1845703,16.6884766 C15.1884766,16.2470703 15.2631836,15.9213867 15.4086914,15.7114258 C15.5541992,15.5014648 15.7734375,15.3964844 16.0664062,15.3964844 C16.3359375,15.3964844 16.5366211,15.4584961 16.668457,15.5825195 C16.800293,15.706543 16.8769531,15.90625 16.8984375,16.1816406 L16.8984375,16.1816406 L17.7773438,16.1816406 C17.7304688,15.7050781 17.5566406,15.3349609 17.2558594,15.0712891 C16.9550781,14.8076172 16.5585938,14.6757812 16.0664062,14.6757812 C15.7109375,14.6757812 15.3989258,14.7592773 15.1303711,14.9262695 C14.8618164,15.0932617 14.6552734,15.3330078 14.5107422,15.6455078 C14.3662109,15.9580078 14.2939453,16.3193359 14.2939453,16.7294922 L14.2939453,16.7294922 L14.2939453,16.9902344 C14.2939453,17.6328125 14.4506836,18.1381836 14.7641602,18.5063477 C15.0776367,18.8745117 15.5078125,19.0585938 16.0546875,19.0585938 Z" id="DOC" fill="#FFFFFF" fill-rule="nonzero"></path>
                    </g>
                </g>
            </g>
        </g>
    </g>
</svg>